<?xml version="1.0" encoding="UTF-8" standalone="no"?>
<!DOCTYPE svg PUBLIC "-//W3C//DTD SVG 1.1//EN"
 "http://www.w3.org/Graphics/SVG/1.1/DTD/svg11.dtd">
<!-- Generated by graphviz version 2.43.0 (0)
 -->
<!-- Title: pipeline Pages: 1 -->
<svg width="2152pt" height="1024pt"
 viewBox="0.00 0.00 2152.00 1024.00" xmlns="http://www.w3.org/2000/svg" xmlns:xlink="http://www.w3.org/1999/xlink">
<g id="graph0" class="graph" transform="scale(1 1) rotate(0) translate(4 1020)">
<title>pipeline</title>
<polygon fill="white" stroke="transparent" points="-4,4 -4,-1020 2148,-1020 2148,4 -4,4"/>
<g id="clust1" class="cluster">
<title>cluster_m0</title>
<path fill="#eef7ee" stroke="#7bb07b" d="M20,-914C20,-914 652,-914 652,-914 658,-914 664,-920 664,-926 664,-926 664,-996 664,-996 664,-1002 658,-1008 652,-1008 652,-1008 20,-1008 20,-1008 14,-1008 8,-1002 8,-996 8,-996 8,-926 8,-926 8,-920 14,-914 20,-914"/>
<text text-anchor="middle" x="336" y="-994.4" font-family="Helvetica,sans-Serif" font-size="12.00">M0 &#160;Gold scenes &#160;(done)</text>
</g>
<g id="clust3" class="cluster">
<title>cluster_m1</title>
<path fill="#eef7ee" stroke="#7bb07b" d="M446,-785C446,-785 1822,-785 1822,-785 1828,-785 1834,-791 1834,-797 1834,-797 1834,-867 1834,-867 1834,-873 1828,-879 1822,-879 1822,-879 446,-879 446,-879 440,-879 434,-873 434,-867 434,-867 434,-797 434,-797 434,-791 440,-785 446,-785"/>
<text text-anchor="middle" x="1134" y="-865.4" font-family="Helvetica,sans-Serif" font-size="12.00">M1 &#160;Verifier &#160;(done for sky, vegetation, props, ground, water)</text>
</g>
<g id="clust5" class="cluster">
<title>cluster_m2</title>
<path fill="#fff6e5" stroke="#d9a441" d="M467,-656C467,-656 1651,-656 1651,-656 1657,-656 1663,-662 1663,-668 1663,-668 1663,-738 1663,-738 1663,-744 1657,-750 1651,-750 1651,-750 467,-750 467,-750 461,-750 455,-744 455,-738 455,-738 455,-668 455,-668 455,-662 461,-656 467,-656"/>
<text text-anchor="middle" x="1059" y="-736.4" font-family="Helvetica,sans-Serif" font-size="12.00">M2 &#160;Data generation &#160;(sky done: 293 examples; vegetation + props running; ground + water queued)</text>
</g>
<g id="clust7" class="cluster">
<title>cluster_m3</title>
<path fill="#eef7ee" stroke="#7bb07b" d="M392,-527C392,-527 1570,-527 1570,-527 1576,-527 1582,-533 1582,-539 1582,-539 1582,-609 1582,-609 1582,-615 1576,-621 1570,-621 1570,-621 392,-621 392,-621 386,-621 380,-615 380,-609 380,-609 380,-539 380,-539 380,-533 386,-527 392,-527"/>
<text text-anchor="middle" x="981" y="-607.4" font-family="Helvetica,sans-Serif" font-size="12.00">M3 &#160;Fine&#45;tune specialists &#160;(sky done: 7B / 3B / 1.5B bake&#45;off; other segments queued)</text>
</g>
<g id="clust9" class="cluster">
<title>cluster_m4</title>
<path fill="#e9f0fb" stroke="#5b8dd6" d="M426,-386C426,-386 1957,-386 1957,-386 1963,-386 1969,-392 1969,-398 1969,-398 1969,-480 1969,-480 1969,-486 1963,-492 1957,-492 1957,-492 426,-492 426,-492 420,-492 414,-486 414,-480 414,-480 414,-398 414,-398 414,-392 420,-386 426,-386"/>
<text text-anchor="middle" x="1191.5" y="-478.4" font-family="Helvetica,sans-Serif" font-size="12.00">M4 &#160;Agentic loop &#160;(runs with the trained 3B sky specialist; composite verifier next)</text>
</g>
<g id="clust11" class="cluster">
<title>cluster_m5</title>
<path fill="#fff6e5" stroke="#d9a441" d="M452,-137C452,-137 1622,-137 1622,-137 1628,-137 1634,-143 1634,-149 1634,-149 1634,-339 1634,-339 1634,-345 1628,-351 1622,-351 1622,-351 452,-351 452,-351 446,-351 440,-345 440,-339 440,-339 440,-149 440,-149 440,-143 446,-137 452,-137"/>
<text text-anchor="middle" x="1037" y="-337.4" font-family="Helvetica,sans-Serif" font-size="12.00">M5 &#160;Segments through M1&#45;M4 &#160;&#160;(each needs: contract, rubric, brief sampler, checks, capture recipe) &#160;&#160;&lt;&#45; current milestone</text>
</g>
<g id="clust14" class="cluster">
<title>cluster_m6</title>
<path fill="#f3f3f3" stroke="#999999" d="M588,-8C588,-8 1117,-8 1117,-8 1123,-8 1129,-14 1129,-20 1129,-20 1129,-90 1129,-90 1129,-96 1123,-102 1117,-102 1117,-102 588,-102 588,-102 582,-102 576,-96 576,-90 576,-90 576,-20 576,-20 576,-14 582,-8 588,-8"/>
<text text-anchor="middle" x="852.5" y="-88.4" font-family="Helvetica,sans-Serif" font-size="12.00">M6 &#160;RL with verifiable rewards &#160;(where SFT plateaus)</text>
</g>
<g id="clust16" class="cluster">
<title>cluster_m7</title>
<path fill="#f3f3f3" stroke="#999999" d="M1239,-8C1239,-8 2124,-8 2124,-8 2130,-8 2136,-14 2136,-20 2136,-20 2136,-90 2136,-90 2136,-96 2130,-102 2124,-102 2124,-102 1239,-102 1239,-102 1233,-102 1227,-96 1227,-90 1227,-90 1227,-20 1227,-20 1227,-14 1233,-8 1239,-8"/>
<text text-anchor="middle" x="1681.5" y="-88.4" font-family="Helvetica,sans-Serif" font-size="12.00">M7 &#160;Holistic scene generation &#160;(one brief in, a playable scene out)</text>
</g>
<!-- m0a -->
<g id="node1" class="node">
<title>m0a</title>
<path fill="#cfe9cf" stroke="#444444" d="M382,-958C382,-958 216,-958 216,-958 210,-958 204,-952 204,-946 204,-946 204,-934 204,-934 204,-928 210,-922 216,-922 216,-922 382,-922 382,-922 388,-922 394,-928 394,-934 394,-934 394,-946 394,-946 394,-952 388,-958 382,-958"/>
<text text-anchor="middle" x="299" y="-943.2" font-family="Helvetica,sans-Serif" font-size="11.00">Beach Walk + Street Drive</text>
<text text-anchor="middle" x="299" y="-931.2" font-family="Helvetica,sans-Serif" font-size="11.00">segment&#45;first layers, worlds, briefs</text>
</g>
<!-- m0c -->
<g id="node3" class="node">
<title>m0c</title>
<path fill="#cfe9cf" stroke="#444444" d="M644.5,-958C644.5,-958 455.5,-958 455.5,-958 449.5,-958 443.5,-952 443.5,-946 443.5,-946 443.5,-934 443.5,-934 443.5,-928 449.5,-922 455.5,-922 455.5,-922 644.5,-922 644.5,-922 650.5,-922 656.5,-928 656.5,-934 656.5,-934 656.5,-946 656.5,-946 656.5,-952 650.5,-958 644.5,-958"/>
<text text-anchor="middle" x="550" y="-943.2" font-family="Helvetica,sans-Serif" font-size="11.00">World contract</text>
<text text-anchor="middle" x="550" y="-931.2" font-family="Helvetica,sans-Serif" font-size="11.00">SceneLayer, WorldContext, swap hook</text>
</g>
<!-- m0a&#45;&gt;m0c -->
<!-- m0b -->
<g id="node2" class="node">
<title>m0b</title>
<path fill="#cfe9cf" stroke="#444444" d="M142,-958C142,-958 28,-958 28,-958 22,-958 16,-952 16,-946 16,-946 16,-934 16,-934 16,-928 22,-922 28,-922 28,-922 142,-922 142,-922 148,-922 154,-928 154,-934 154,-934 154,-946 154,-946 154,-952 148,-958 142,-958"/>
<text text-anchor="middle" x="85" y="-943.2" font-family="Helvetica,sans-Serif" font-size="11.00">Reference clips</text>
<text text-anchor="middle" x="85" y="-931.2" font-family="Helvetica,sans-Serif" font-size="11.00">examples/ study sheets</text>
</g>
<!-- m0b&#45;&gt;m0a -->
<!-- v1 -->
<g id="node4" class="node">
<title>v1</title>
<path fill="#cfe9cf" stroke="#444444" d="M646,-829C646,-829 454,-829 454,-829 448,-829 442,-823 442,-817 442,-817 442,-805 442,-805 442,-799 448,-793 454,-793 454,-793 646,-793 646,-793 652,-793 658,-799 658,-805 658,-805 658,-817 658,-817 658,-823 652,-829 646,-829"/>
<text text-anchor="middle" x="550" y="-814.2" font-family="Helvetica,sans-Serif" font-size="11.00">Static gate</text>
<text text-anchor="middle" x="550" y="-802.2" font-family="Helvetica,sans-Serif" font-size="11.00">extends SceneLayer, no forbidden APIs</text>
</g>
<!-- m0c&#45;&gt;v1 -->
<g id="edge34" class="edge">
<title>m0c&#45;&gt;v1</title>
<path fill="none" stroke="#555555" d="M550,-914C550,-906.04 550,-896.79 550,-887.16"/>
<polygon fill="#555555" stroke="#555555" points="552.8,-887 550,-879 547.2,-887 552.8,-887"/>
<text text-anchor="middle" x="603" y="-889.8" font-family="Helvetica,sans-Serif" font-size="9.00"> &#160;contract + capture recipe</text>
</g>
<!-- v2 -->
<g id="node5" class="node">
<title>v2</title>
<path fill="#cfe9cf" stroke="#444444" d="M866.5,-829C866.5,-829 719.5,-829 719.5,-829 713.5,-829 707.5,-823 707.5,-817 707.5,-817 707.5,-805 707.5,-805 707.5,-799 713.5,-793 719.5,-793 719.5,-793 866.5,-793 866.5,-793 872.5,-793 878.5,-799 878.5,-805 878.5,-805 878.5,-817 878.5,-817 878.5,-823 872.5,-829 866.5,-829"/>
<text text-anchor="middle" x="793" y="-814.2" font-family="Helvetica,sans-Serif" font-size="11.00">Runtime gate</text>
<text text-anchor="middle" x="793" y="-802.2" font-family="Helvetica,sans-Serif" font-size="11.00">headless boot, no script errors</text>
</g>
<!-- v1&#45;&gt;v2 -->
<g id="edge3" class="edge">
<title>v1&#45;&gt;v2</title>
<path fill="none" stroke="#555555" d="M658.21,-811C671.93,-811 685.65,-811 699.36,-811"/>
<polygon fill="#555555" stroke="#555555" points="699.44,-813.8 707.44,-811 699.44,-808.2 699.44,-813.8"/>
</g>
<!-- d1 -->
<g id="node10" class="node">
<title>d1</title>
<path fill="#ffe3b0" stroke="#444444" d="M624.5,-700C624.5,-700 475.5,-700 475.5,-700 469.5,-700 463.5,-694 463.5,-688 463.5,-688 463.5,-676 463.5,-676 463.5,-670 469.5,-664 475.5,-664 475.5,-664 624.5,-664 624.5,-664 630.5,-664 636.5,-670 636.5,-676 636.5,-676 636.5,-688 636.5,-688 636.5,-694 630.5,-700 624.5,-700"/>
<text text-anchor="middle" x="550" y="-685.2" font-family="Helvetica,sans-Serif" font-size="11.00">Brief sampler</text>
<text text-anchor="middle" x="550" y="-673.2" font-family="Helvetica,sans-Serif" font-size="11.00">time of day x weather x palette</text>
</g>
<!-- v1&#45;&gt;d1 -->
<g id="edge35" class="edge">
<title>v1&#45;&gt;d1</title>
<path fill="none" stroke="#555555" d="M550,-785C550,-777.04 550,-767.79 550,-758.16"/>
<polygon fill="#555555" stroke="#555555" points="552.8,-758 550,-750 547.2,-758 552.8,-758"/>
<text text-anchor="middle" x="616" y="-760.8" font-family="Helvetica,sans-Serif" font-size="9.00"> &#160;the same verifier filters the data</text>
</g>
<!-- v3 -->
<g id="node6" class="node">
<title>v3</title>
<path fill="#cfe9cf" stroke="#444444" d="M1060,-829C1060,-829 940,-829 940,-829 934,-829 928,-823 928,-817 928,-817 928,-805 928,-805 928,-799 934,-793 940,-793 940,-793 1060,-793 1060,-793 1066,-793 1072,-799 1072,-805 1072,-805 1072,-817 1072,-817 1072,-823 1066,-829 1060,-829"/>
<text text-anchor="middle" x="1000" y="-814.2" font-family="Helvetica,sans-Serif" font-size="11.00">Native capture</text>
<text text-anchor="middle" x="1000" y="-802.2" font-family="Helvetica,sans-Serif" font-size="11.00">GPU, 3 views, stats.json</text>
</g>
<!-- v2&#45;&gt;v3 -->
<g id="edge4" class="edge">
<title>v2&#45;&gt;v3</title>
<path fill="none" stroke="#555555" d="M878.71,-811C892.44,-811 906.17,-811 919.9,-811"/>
<polygon fill="#555555" stroke="#555555" points="919.98,-813.8 927.98,-811 919.98,-808.2 919.98,-813.8"/>
</g>
<!-- v4 -->
<g id="node7" class="node">
<title>v4</title>
<path fill="#cfe9cf" stroke="#444444" d="M1320.5,-829C1320.5,-829 1133.5,-829 1133.5,-829 1127.5,-829 1121.5,-823 1121.5,-817 1121.5,-817 1121.5,-805 1121.5,-805 1121.5,-799 1127.5,-793 1133.5,-793 1133.5,-793 1320.5,-793 1320.5,-793 1326.5,-793 1332.5,-799 1332.5,-805 1332.5,-805 1332.5,-817 1332.5,-817 1332.5,-823 1326.5,-829 1320.5,-829"/>
<text text-anchor="middle" x="1227" y="-814.2" font-family="Helvetica,sans-Serif" font-size="11.00">Checks</text>
<text text-anchor="middle" x="1227" y="-802.2" font-family="Helvetica,sans-Serif" font-size="11.00">sun angles, palette, budget, brightness</text>
</g>
<!-- v3&#45;&gt;v4 -->
<g id="edge5" class="edge">
<title>v3&#45;&gt;v4</title>
<path fill="none" stroke="#555555" d="M1072.27,-811C1085.91,-811 1099.55,-811 1113.19,-811"/>
<polygon fill="#555555" stroke="#555555" points="1113.23,-813.8 1121.23,-811 1113.23,-808.2 1113.23,-813.8"/>
</g>
<!-- v5 -->
<g id="node8" class="node">
<title>v5</title>
<path fill="#cfe9cf" stroke="#444444" d="M1616,-829C1616,-829 1394,-829 1394,-829 1388,-829 1382,-823 1382,-817 1382,-817 1382,-805 1382,-805 1382,-799 1388,-793 1394,-793 1394,-793 1616,-793 1616,-793 1622,-793 1628,-799 1628,-805 1628,-805 1628,-817 1628,-817 1628,-823 1622,-829 1616,-829"/>
<text text-anchor="middle" x="1505" y="-814.2" font-family="Helvetica,sans-Serif" font-size="11.00">Judge</text>
<text text-anchor="middle" x="1505" y="-802.2" font-family="Helvetica,sans-Serif" font-size="11.00">Claude Fable 5.1 + rubric &#45;&gt; scores, evidence</text>
</g>
<!-- v4&#45;&gt;v5 -->
<g id="edge6" class="edge">
<title>v4&#45;&gt;v5</title>
<path fill="none" stroke="#555555" d="M1332.61,-811C1346.31,-811 1360,-811 1373.7,-811"/>
<polygon fill="#555555" stroke="#555555" points="1373.77,-813.8 1381.77,-811 1373.77,-808.2 1373.77,-813.8"/>
</g>
<!-- v6 -->
<g id="node9" class="node">
<title>v6</title>
<path fill="#cfe9cf" stroke="#444444" d="M1814,-829C1814,-829 1690,-829 1690,-829 1684,-829 1678,-823 1678,-817 1678,-817 1678,-805 1678,-805 1678,-799 1684,-793 1690,-793 1690,-793 1814,-793 1814,-793 1820,-793 1826,-799 1826,-805 1826,-805 1826,-817 1826,-817 1826,-823 1820,-829 1814,-829"/>
<text text-anchor="middle" x="1752" y="-814.2" font-family="Helvetica,sans-Serif" font-size="11.00">Aggregate</text>
<text text-anchor="middle" x="1752" y="-802.2" font-family="Helvetica,sans-Serif" font-size="11.00">score, pass, revision brief</text>
</g>
<!-- v5&#45;&gt;v6 -->
<g id="edge7" class="edge">
<title>v5&#45;&gt;v6</title>
<path fill="none" stroke="#555555" d="M1628.02,-811C1641.92,-811 1655.82,-811 1669.72,-811"/>
<polygon fill="#555555" stroke="#555555" points="1669.9,-813.8 1677.9,-811 1669.9,-808.2 1669.9,-813.8"/>
</g>
<!-- l3 -->
<g id="node21" class="node">
<title>l3</title>
<path fill="#cfe9cf" stroke="#444444" d="M1229,-436C1229,-436 1037,-436 1037,-436 1031,-436 1025,-430 1025,-424 1025,-424 1025,-412 1025,-412 1025,-406 1031,-400 1037,-400 1037,-400 1229,-400 1229,-400 1235,-400 1241,-406 1241,-412 1241,-412 1241,-424 1241,-424 1241,-430 1235,-436 1229,-436"/>
<text text-anchor="middle" x="1133" y="-421.2" font-family="Helvetica,sans-Serif" font-size="11.00">Per&#45;layer verifier</text>
<text text-anchor="middle" x="1133" y="-409.2" font-family="Helvetica,sans-Serif" font-size="11.00">each layer alone, rendered in the scene</text>
</g>
<!-- v6&#45;&gt;l3 -->
<g id="edge41" class="edge">
<title>v6&#45;&gt;l3</title>
<path fill="none" stroke="#7bb07b" stroke-dasharray="5,2" d="M1748.26,-792.81C1735.99,-741.22 1691.71,-587.58 1588,-527 1518.84,-486.61 1301.59,-541.6 1228,-510 1194.91,-495.79 1166.54,-464.56 1149.63,-442.67"/>
<polygon fill="#7bb07b" stroke="#7bb07b" points="1151.81,-440.91 1144.76,-436.2 1147.34,-444.28 1151.81,-440.91"/>
<text text-anchor="middle" x="1764.5" y="-631.8" font-family="Helvetica,sans-Serif" font-size="9.00"> &#160;the same verifier accepts in the loop</text>
</g>
<!-- d2 -->
<g id="node11" class="node">
<title>d2</title>
<path fill="#ffe3b0" stroke="#444444" d="M907.5,-700C907.5,-700 698.5,-700 698.5,-700 692.5,-700 686.5,-694 686.5,-688 686.5,-688 686.5,-676 686.5,-676 686.5,-670 692.5,-664 698.5,-664 698.5,-664 907.5,-664 907.5,-664 913.5,-664 919.5,-670 919.5,-676 919.5,-676 919.5,-688 919.5,-688 919.5,-694 913.5,-700 907.5,-700"/>
<text text-anchor="middle" x="803" y="-685.2" font-family="Helvetica,sans-Serif" font-size="11.00">Teacher</text>
<text text-anchor="middle" x="803" y="-673.2" font-family="Helvetica,sans-Serif" font-size="11.00">Claude Sonnet 5 writes 2 candidates / brief</text>
</g>
<!-- d1&#45;&gt;d2 -->
<g id="edge8" class="edge">
<title>d1&#45;&gt;d2</title>
<path fill="none" stroke="#555555" d="M636.97,-682C650.7,-682 664.44,-682 678.17,-682"/>
<polygon fill="#555555" stroke="#555555" points="678.26,-684.8 686.26,-682 678.26,-679.2 678.26,-684.8"/>
</g>
<!-- t1 -->
<g id="node15" class="node">
<title>t1</title>
<path fill="#cfe9cf" stroke="#444444" d="M699.5,-571C699.5,-571 400.5,-571 400.5,-571 394.5,-571 388.5,-565 388.5,-559 388.5,-559 388.5,-547 388.5,-547 388.5,-541 394.5,-535 400.5,-535 400.5,-535 699.5,-535 699.5,-535 705.5,-535 711.5,-541 711.5,-547 711.5,-547 711.5,-559 711.5,-559 711.5,-565 705.5,-571 699.5,-571"/>
<text text-anchor="middle" x="550" y="-556.2" font-family="Helvetica,sans-Serif" font-size="11.00">SFT training job</text>
<text text-anchor="middle" x="550" y="-544.2" font-family="Helvetica,sans-Serif" font-size="11.00">Qwen2.5&#45;Coder + LoRA per segment (SageMaker, us&#45;east&#45;2)</text>
</g>
<!-- d1&#45;&gt;t1 -->
<g id="edge36" class="edge">
<title>d1&#45;&gt;t1</title>
<path fill="none" stroke="#555555" d="M550,-656C550,-648.04 550,-638.79 550,-629.16"/>
<polygon fill="#555555" stroke="#555555" points="552.8,-629 550,-621 547.2,-629 552.8,-629"/>
<text text-anchor="middle" x="579" y="-631.8" font-family="Helvetica,sans-Serif" font-size="9.00"> &#160;dataset to S3</text>
</g>
<!-- d3 -->
<g id="node12" class="node">
<title>d3</title>
<path fill="#ffe3b0" stroke="#444444" d="M1142.5,-700C1142.5,-700 981.5,-700 981.5,-700 975.5,-700 969.5,-694 969.5,-688 969.5,-688 969.5,-676 969.5,-676 969.5,-670 975.5,-664 981.5,-664 981.5,-664 1142.5,-664 1142.5,-664 1148.5,-664 1154.5,-670 1154.5,-676 1154.5,-676 1154.5,-688 1154.5,-688 1154.5,-694 1148.5,-700 1142.5,-700"/>
<text text-anchor="middle" x="1062" y="-685.2" font-family="Helvetica,sans-Serif" font-size="11.00">Verify</text>
<text text-anchor="middle" x="1062" y="-673.2" font-family="Helvetica,sans-Serif" font-size="11.00">pass &#45;&gt; example, fail &#45;&gt; evidence</text>
</g>
<!-- d2&#45;&gt;d3 -->
<g id="edge9" class="edge">
<title>d2&#45;&gt;d3</title>
<path fill="none" stroke="#555555" d="M919.6,-682C933.47,-682 947.34,-682 961.22,-682"/>
<polygon fill="#555555" stroke="#555555" points="961.38,-684.8 969.38,-682 961.38,-679.2 961.38,-684.8"/>
</g>
<!-- d4 -->
<g id="node13" class="node">
<title>d4</title>
<path fill="#ffe3b0" stroke="#444444" d="M1381,-700C1381,-700 1225,-700 1225,-700 1219,-700 1213,-694 1213,-688 1213,-688 1213,-676 1213,-676 1213,-670 1219,-664 1225,-664 1225,-664 1381,-664 1381,-664 1387,-664 1393,-670 1393,-676 1393,-676 1393,-688 1393,-688 1393,-694 1387,-700 1381,-700"/>
<text text-anchor="middle" x="1303" y="-685.2" font-family="Helvetica,sans-Serif" font-size="11.00">Revise</text>
<text text-anchor="middle" x="1303" y="-673.2" font-family="Helvetica,sans-Serif" font-size="11.00">teacher fixes fails from evidence</text>
</g>
<!-- d3&#45;&gt;d4 -->
<g id="edge10" class="edge">
<title>d3&#45;&gt;d4</title>
<path fill="none" stroke="#555555" d="M1154.67,-679.04C1167.71,-678.87 1180.94,-678.83 1193.5,-679 1197.13,-679.05 1200.82,-679.11 1204.56,-679.18"/>
<polygon fill="#555555" stroke="#555555" points="1204.72,-681.98 1212.77,-679.33 1204.83,-676.38 1204.72,-681.98"/>
</g>
<!-- d4&#45;&gt;d3 -->
<g id="edge12" class="edge">
<title>d4&#45;&gt;d3</title>
<path fill="none" stroke="#555555" stroke-dasharray="5,2" d="M1212.99,-682C1196.67,-682 1179.55,-682 1162.94,-682"/>
<polygon fill="#555555" stroke="#555555" points="1162.83,-679.2 1154.83,-682 1162.83,-684.8 1162.83,-679.2"/>
<text text-anchor="middle" x="1183.75" y="-687.8" font-family="Helvetica,sans-Serif" font-size="9.00">re&#45;verify</text>
</g>
<!-- d5 -->
<g id="node14" class="node">
<title>d5</title>
<path fill="#ffe3b0" stroke="#444444" d="M1643.5,-700C1643.5,-700 1454.5,-700 1454.5,-700 1448.5,-700 1442.5,-694 1442.5,-688 1442.5,-688 1442.5,-676 1442.5,-676 1442.5,-670 1448.5,-664 1454.5,-664 1454.5,-664 1643.5,-664 1643.5,-664 1649.5,-664 1655.5,-670 1655.5,-676 1655.5,-676 1655.5,-688 1655.5,-688 1655.5,-694 1649.5,-700 1643.5,-700"/>
<text text-anchor="middle" x="1549" y="-685.2" font-family="Helvetica,sans-Serif" font-size="11.00">SFT dataset</text>
<text text-anchor="middle" x="1549" y="-673.2" font-family="Helvetica,sans-Serif" font-size="11.00">train / val / preferences / held&#45;out briefs</text>
</g>
<!-- d4&#45;&gt;d5 -->
<g id="edge11" class="edge">
<title>d4&#45;&gt;d5</title>
<path fill="none" stroke="#555555" d="M1393.33,-682C1406.97,-682 1420.61,-682 1434.25,-682"/>
<polygon fill="#555555" stroke="#555555" points="1434.28,-684.8 1442.28,-682 1434.28,-679.2 1434.28,-684.8"/>
</g>
<!-- t2 -->
<g id="node16" class="node">
<title>t2</title>
<path fill="#cfe9cf" stroke="#444444" d="M1038.5,-571C1038.5,-571 773.5,-571 773.5,-571 767.5,-571 761.5,-565 761.5,-559 761.5,-559 761.5,-547 761.5,-547 761.5,-541 767.5,-535 773.5,-535 773.5,-535 1038.5,-535 1038.5,-535 1044.5,-535 1050.5,-541 1050.5,-547 1050.5,-547 1050.5,-559 1050.5,-559 1050.5,-565 1044.5,-571 1038.5,-571"/>
<text text-anchor="middle" x="906" y="-556.2" font-family="Helvetica,sans-Serif" font-size="11.00">Bake&#45;off</text>
<text text-anchor="middle" x="906" y="-544.2" font-family="Helvetica,sans-Serif" font-size="11.00">sky: 1.5B and 3B 77% one&#45;shot, 7B 60%, teacher 60%</text>
</g>
<!-- t1&#45;&gt;t2 -->
<g id="edge13" class="edge">
<title>t1&#45;&gt;t2</title>
<path fill="none" stroke="#555555" d="M711.66,-553C725.52,-553 739.37,-553 753.23,-553"/>
<polygon fill="#555555" stroke="#555555" points="753.38,-555.8 761.38,-553 753.38,-550.2 753.38,-555.8"/>
</g>
<!-- l1 -->
<g id="node19" class="node">
<title>l1</title>
<path fill="#cfe9cf" stroke="#444444" d="M665.5,-442C665.5,-442 434.5,-442 434.5,-442 428.5,-442 422.5,-436 422.5,-430 422.5,-430 422.5,-406 422.5,-406 422.5,-400 428.5,-394 434.5,-394 434.5,-394 665.5,-394 665.5,-394 671.5,-394 677.5,-400 677.5,-406 677.5,-406 677.5,-430 677.5,-430 677.5,-436 671.5,-442 665.5,-442"/>
<text text-anchor="middle" x="550" y="-427.2" font-family="Helvetica,sans-Serif" font-size="11.00">Director</text>
<text text-anchor="middle" x="550" y="-415.2" font-family="Helvetica,sans-Serif" font-size="11.00">Claude Fable 5.1: scene brief &#45;&gt; segment briefs</text>
<text text-anchor="middle" x="550" y="-403.2" font-family="Helvetica,sans-Serif" font-size="11.00">(palette, scale, style shared)</text>
</g>
<!-- t1&#45;&gt;l1 -->
<g id="edge37" class="edge">
<title>t1&#45;&gt;l1</title>
<path fill="none" stroke="#555555" d="M550,-527C550,-519.09 550,-509.87 550,-500.22"/>
<polygon fill="#555555" stroke="#555555" points="552.8,-500 550,-492 547.2,-500 552.8,-500"/>
<text text-anchor="middle" x="591" y="-502.8" font-family="Helvetica,sans-Serif" font-size="9.00"> &#160;deploy the adapter</text>
</g>
<!-- t3 -->
<g id="node17" class="node">
<title>t3</title>
<path fill="#cfe9cf" stroke="#444444" d="M1290,-571C1290,-571 1112,-571 1112,-571 1106,-571 1100,-565 1100,-559 1100,-559 1100,-547 1100,-547 1100,-541 1106,-535 1112,-535 1112,-535 1290,-535 1290,-535 1296,-535 1302,-541 1302,-547 1302,-547 1302,-559 1302,-559 1302,-565 1296,-571 1290,-571"/>
<text text-anchor="middle" x="1201" y="-556.2" font-family="Helvetica,sans-Serif" font-size="11.00">Evaluate</text>
<text text-anchor="middle" x="1201" y="-544.2" font-family="Helvetica,sans-Serif" font-size="11.00">same verifier, one self&#45;revision round</text>
</g>
<!-- t2&#45;&gt;t3 -->
<g id="edge14" class="edge">
<title>t2&#45;&gt;t3</title>
<path fill="none" stroke="#555555" d="M1050.62,-553C1064.37,-553 1078.12,-553 1091.87,-553"/>
<polygon fill="#555555" stroke="#555555" points="1091.96,-555.8 1099.96,-553 1091.96,-550.2 1091.96,-555.8"/>
</g>
<!-- t4 -->
<g id="node18" class="node">
<title>t4</title>
<path fill="#cfdcf5" stroke="#444444" d="M1562,-571C1562,-571 1364,-571 1364,-571 1358,-571 1352,-565 1352,-559 1352,-559 1352,-547 1352,-547 1352,-541 1358,-535 1364,-535 1364,-535 1562,-535 1562,-535 1568,-535 1574,-541 1574,-547 1574,-547 1574,-559 1574,-559 1574,-565 1568,-571 1562,-571"/>
<text text-anchor="middle" x="1463" y="-556.2" font-family="Helvetica,sans-Serif" font-size="11.00">Model Registry</text>
<text text-anchor="middle" x="1463" y="-544.2" font-family="Helvetica,sans-Serif" font-size="11.00">approval gated on pass rate (not yet run)</text>
</g>
<!-- t3&#45;&gt;t4 -->
<g id="edge15" class="edge">
<title>t3&#45;&gt;t4</title>
<path fill="none" stroke="#555555" d="M1302.06,-553C1315.9,-553 1329.74,-553 1343.58,-553"/>
<polygon fill="#555555" stroke="#555555" points="1343.73,-555.8 1351.73,-553 1343.73,-550.2 1343.73,-555.8"/>
</g>
<!-- l2 -->
<g id="node20" class="node">
<title>l2</title>
<path fill="#cfe9cf" stroke="#444444" d="M963,-442C963,-442 739,-442 739,-442 733,-442 727,-436 727,-430 727,-430 727,-406 727,-406 727,-400 733,-394 739,-394 739,-394 963,-394 963,-394 969,-394 975,-400 975,-406 975,-406 975,-430 975,-430 975,-436 969,-442 963,-442"/>
<text text-anchor="middle" x="851" y="-427.2" font-family="Helvetica,sans-Serif" font-size="11.00">Specialists</text>
<text text-anchor="middle" x="851" y="-415.2" font-family="Helvetica,sans-Serif" font-size="11.00">sky: 3B adapter (3 briefs accepted end to end)</text>
<text text-anchor="middle" x="851" y="-403.2" font-family="Helvetica,sans-Serif" font-size="11.00">others: shipped gold layers until trained</text>
</g>
<!-- l1&#45;&gt;l2 -->
<g id="edge16" class="edge">
<title>l1&#45;&gt;l2</title>
<path fill="none" stroke="#555555" d="M677.57,-418C691.26,-418 704.94,-418 718.63,-418"/>
<polygon fill="#555555" stroke="#555555" points="718.69,-420.8 726.69,-418 718.69,-415.2 718.69,-420.8"/>
</g>
<!-- g0 -->
<g id="node25" class="node">
<title>g0</title>
<path fill="#cfe9cf" stroke="#444444" d="M640.5,-301C640.5,-301 459.5,-301 459.5,-301 453.5,-301 447.5,-295 447.5,-289 447.5,-289 447.5,-265 447.5,-265 447.5,-259 453.5,-253 459.5,-253 459.5,-253 640.5,-253 640.5,-253 646.5,-253 652.5,-259 652.5,-265 652.5,-265 652.5,-289 652.5,-289 652.5,-295 646.5,-301 640.5,-301"/>
<text text-anchor="middle" x="550" y="-286.2" font-family="Helvetica,sans-Serif" font-size="11.00">sky</text>
<text text-anchor="middle" x="550" y="-274.2" font-family="Helvetica,sans-Serif" font-size="11.00">specialist trained + evaluated</text>
<text text-anchor="middle" x="550" y="-262.2" font-family="Helvetica,sans-Serif" font-size="11.00">(1.5B / 3B beat the teacher one&#45;shot)</text>
</g>
<!-- l1&#45;&gt;g0 -->
<g id="edge38" class="edge">
<title>l1&#45;&gt;g0</title>
<path fill="none" stroke="#555555" d="M550,-386C550,-377.89 550,-368.75 550,-359.32"/>
<polygon fill="#555555" stroke="#555555" points="552.8,-359 550,-351 547.2,-359 552.8,-359"/>
<text text-anchor="middle" x="638.5" y="-361.8" font-family="Helvetica,sans-Serif" font-size="9.00"> &#160;repeat M1 to M4 per segment, in this order</text>
</g>
<!-- l2&#45;&gt;l3 -->
<g id="edge17" class="edge">
<title>l2&#45;&gt;l3</title>
<path fill="none" stroke="#555555" d="M975.2,-418C989.03,-418 1002.85,-418 1016.68,-418"/>
<polygon fill="#555555" stroke="#555555" points="1016.82,-420.8 1024.82,-418 1016.82,-415.2 1016.82,-420.8"/>
</g>
<!-- l3b -->
<g id="node22" class="node">
<title>l3b</title>
<path fill="#ffffff" stroke="#5b8dd6" stroke-width="2" stroke-dasharray="5,2" d="M1489,-442C1489,-442 1303,-442 1303,-442 1297,-442 1291,-436 1291,-430 1291,-430 1291,-406 1291,-406 1291,-400 1297,-394 1303,-394 1303,-394 1489,-394 1489,-394 1495,-394 1501,-400 1501,-406 1501,-406 1501,-430 1501,-430 1501,-436 1495,-442 1489,-442"/>
<text text-anchor="middle" x="1396" y="-427.2" font-family="Helvetica,sans-Serif" font-size="11.00">Composite verifier</text>
<text text-anchor="middle" x="1396" y="-415.2" font-family="Helvetica,sans-Serif" font-size="11.00">assembled scene, whole&#45;scene rubric,</text>
<text text-anchor="middle" x="1396" y="-403.2" font-family="Helvetica,sans-Serif" font-size="11.00">problems attributed to segments</text>
</g>
<!-- l3&#45;&gt;l3b -->
<g id="edge18" class="edge">
<title>l3&#45;&gt;l3b</title>
<path fill="none" stroke="#555555" d="M1241.13,-418C1254.95,-418 1268.77,-418 1282.6,-418"/>
<polygon fill="#555555" stroke="#555555" points="1282.74,-420.8 1290.74,-418 1282.74,-415.2 1282.74,-420.8"/>
</g>
<!-- l4 -->
<g id="node23" class="node">
<title>l4</title>
<path fill="#cfe9cf" stroke="#444444" d="M1705,-436C1705,-436 1563,-436 1563,-436 1557,-436 1551,-430 1551,-424 1551,-424 1551,-412 1551,-412 1551,-406 1557,-400 1563,-400 1563,-400 1705,-400 1705,-400 1711,-400 1717,-406 1717,-412 1717,-412 1717,-424 1717,-424 1717,-430 1711,-436 1705,-436"/>
<text text-anchor="middle" x="1634" y="-421.2" font-family="Helvetica,sans-Serif" font-size="11.00">Revise</text>
<text text-anchor="middle" x="1634" y="-409.2" font-family="Helvetica,sans-Serif" font-size="11.00">up to 3 rounds from evidence</text>
</g>
<!-- l3b&#45;&gt;l4 -->
<g id="edge19" class="edge">
<title>l3b&#45;&gt;l4</title>
<path fill="none" stroke="#555555" d="M1501.05,-418C1514.95,-418 1528.84,-418 1542.73,-418"/>
<polygon fill="#555555" stroke="#555555" points="1542.91,-420.8 1550.91,-418 1542.91,-415.2 1542.91,-420.8"/>
</g>
<!-- h3 -->
<g id="node39" class="node">
<title>h3</title>
<path fill="#e0e0e0" stroke="#444444" d="M2115.5,-52C2115.5,-52 1846.5,-52 1846.5,-52 1840.5,-52 1834.5,-46 1834.5,-40 1834.5,-40 1834.5,-28 1834.5,-28 1834.5,-22 1840.5,-16 1846.5,-16 1846.5,-16 2115.5,-16 2115.5,-16 2121.5,-16 2127.5,-22 2127.5,-28 2127.5,-28 2127.5,-40 2127.5,-40 2127.5,-46 2121.5,-52 2115.5,-52"/>
<text text-anchor="middle" x="1981" y="-37.2" font-family="Helvetica,sans-Serif" font-size="11.00">All specialists + composite verifier</text>
<text text-anchor="middle" x="1981" y="-25.2" font-family="Helvetica,sans-Serif" font-size="11.00">every layer from a small model, accepted by one verifier</text>
</g>
<!-- l3b&#45;&gt;h3 -->
<g id="edge42" class="edge">
<title>l3b&#45;&gt;h3</title>
<path fill="none" stroke="#5b8dd6" stroke-dasharray="5,2" d="M1500.54,-393.97C1555.14,-380.91 1615.57,-364.53 1640,-351 1784.47,-270.99 1915.84,-117.01 1962.76,-58.41"/>
<polygon fill="#5b8dd6" stroke="#5b8dd6" points="1965.02,-60.08 1967.81,-52.07 1960.63,-56.59 1965.02,-60.08"/>
<text text-anchor="middle" x="1908.5" y="-220.8" font-family="Helvetica,sans-Serif" font-size="9.00"> &#160;composite verifier is what makes M7 possible</text>
</g>
<!-- l4&#45;&gt;l2 -->
<g id="edge21" class="edge">
<title>l4&#45;&gt;l2</title>
<path fill="none" stroke="#555555" stroke-dasharray="5,2" d="M1611.79,-436.15C1588.89,-453.6 1551.36,-478.78 1514,-489 1406.62,-518.39 1121.97,-511.83 1013,-489 973.21,-480.66 931.25,-461.96 900.01,-445.84"/>
<polygon fill="#555555" stroke="#555555" points="901.09,-443.25 892.71,-442.02 898.5,-448.21 901.09,-443.25"/>
<text text-anchor="middle" x="1263" y="-502.8" font-family="Helvetica,sans-Serif" font-size="9.00">revision briefs</text>
</g>
<!-- l5 -->
<g id="node24" class="node">
<title>l5</title>
<path fill="#cfe9cf" stroke="#444444" d="M1949.5,-436C1949.5,-436 1778.5,-436 1778.5,-436 1772.5,-436 1766.5,-430 1766.5,-424 1766.5,-424 1766.5,-412 1766.5,-412 1766.5,-406 1772.5,-400 1778.5,-400 1778.5,-400 1949.5,-400 1949.5,-400 1955.5,-400 1961.5,-406 1961.5,-412 1961.5,-412 1961.5,-424 1961.5,-424 1961.5,-430 1955.5,-436 1949.5,-436"/>
<text text-anchor="middle" x="1864" y="-421.2" font-family="Helvetica,sans-Serif" font-size="11.00">Publish</text>
<text text-anchor="middle" x="1864" y="-409.2" font-family="Helvetica,sans-Serif" font-size="11.00">install layers, export, GitHub Pages</text>
</g>
<!-- l4&#45;&gt;l5 -->
<g id="edge20" class="edge">
<title>l4&#45;&gt;l5</title>
<path fill="none" stroke="#555555" d="M1717.11,-418C1730.86,-418 1744.61,-418 1758.36,-418"/>
<polygon fill="#555555" stroke="#555555" points="1758.45,-420.8 1766.45,-418 1758.45,-415.2 1758.45,-420.8"/>
</g>
<!-- g1 -->
<g id="node26" class="node">
<title>g1</title>
<path fill="#cfdcf5" stroke="#444444" d="M900,-301C900,-301 714,-301 714,-301 708,-301 702,-295 702,-289 702,-289 702,-265 702,-265 702,-259 708,-253 714,-253 714,-253 900,-253 900,-253 906,-253 912,-259 912,-265 912,-265 912,-289 912,-289 912,-295 906,-301 900,-301"/>
<text text-anchor="middle" x="807" y="-286.2" font-family="Helvetica,sans-Serif" font-size="11.00">ground / water</text>
<text text-anchor="middle" x="807" y="-274.2" font-family="Helvetica,sans-Serif" font-size="11.00">contract, rubric, sampler, checks: done</text>
<text text-anchor="middle" x="807" y="-262.2" font-family="Helvetica,sans-Serif" font-size="11.00">data runs queued</text>
</g>
<!-- g0&#45;&gt;g1 -->
<g id="edge22" class="edge">
<title>g0&#45;&gt;g1</title>
<path fill="none" stroke="#999999" d="M652.65,-277C666.34,-277 680.03,-277 693.73,-277"/>
<polygon fill="#999999" stroke="#999999" points="693.79,-279.8 701.79,-277 693.79,-274.2 693.79,-279.8"/>
</g>
<!-- g2 -->
<g id="node27" class="node">
<title>g2</title>
<path fill="#e0e0e0" stroke="#444444" d="M1094,-295C1094,-295 974,-295 974,-295 968,-295 962,-289 962,-283 962,-283 962,-271 962,-271 962,-265 968,-259 974,-259 974,-259 1094,-259 1094,-259 1100,-259 1106,-265 1106,-271 1106,-271 1106,-283 1106,-283 1106,-289 1100,-295 1094,-295"/>
<text text-anchor="middle" x="1034" y="-280.2" font-family="Helvetica,sans-Serif" font-size="11.00">camera</text>
<text text-anchor="middle" x="1034" y="-268.2" font-family="Helvetica,sans-Serif" font-size="11.00">framing box, stabilisation</text>
</g>
<!-- g1&#45;&gt;g2 -->
<g id="edge23" class="edge">
<title>g1&#45;&gt;g2</title>
<path fill="none" stroke="#999999" d="M912.08,-277C925.88,-277 939.68,-277 953.48,-277"/>
<polygon fill="#999999" stroke="#999999" points="953.61,-279.8 961.61,-277 953.61,-274.2 953.61,-279.8"/>
</g>
<!-- g3 -->
<g id="node28" class="node">
<title>g3</title>
<path fill="#e0e0e0" stroke="#444444" d="M1306,-295C1306,-295 1168,-295 1168,-295 1162,-295 1156,-289 1156,-283 1156,-283 1156,-271 1156,-271 1156,-265 1162,-259 1168,-259 1168,-259 1306,-259 1306,-259 1312,-259 1318,-265 1318,-271 1318,-271 1318,-283 1318,-283 1318,-289 1312,-295 1306,-295"/>
<text text-anchor="middle" x="1237" y="-280.2" font-family="Helvetica,sans-Serif" font-size="11.00">fauna</text>
<text text-anchor="middle" x="1237" y="-268.2" font-family="Helvetica,sans-Serif" font-size="11.00">flock motion, flush behaviour</text>
</g>
<!-- g2&#45;&gt;g3 -->
<g id="edge24" class="edge">
<title>g2&#45;&gt;g3</title>
<path fill="none" stroke="#999999" d="M1106.16,-277C1120.05,-277 1133.93,-277 1147.82,-277"/>
<polygon fill="#999999" stroke="#999999" points="1147.99,-279.8 1155.99,-277 1147.99,-274.2 1147.99,-279.8"/>
</g>
<!-- g4 -->
<g id="node29" class="node">
<title>g4</title>
<path fill="#ffe3b0" stroke="#444444" d="M1614,-301C1614,-301 1380,-301 1380,-301 1374,-301 1368,-295 1368,-289 1368,-289 1368,-265 1368,-265 1368,-259 1374,-253 1380,-253 1380,-253 1614,-253 1614,-253 1620,-253 1626,-259 1626,-265 1626,-265 1626,-289 1626,-289 1626,-295 1620,-301 1614,-301"/>
<text text-anchor="middle" x="1497" y="-286.2" font-family="Helvetica,sans-Serif" font-size="11.00">props</text>
<text text-anchor="middle" x="1497" y="-274.2" font-family="Helvetica,sans-Serif" font-size="11.00">contract + checks done (spots, contact validator)</text>
<text text-anchor="middle" x="1497" y="-262.2" font-family="Helvetica,sans-Serif" font-size="11.00">data run in progress</text>
</g>
<!-- g3&#45;&gt;g4 -->
<g id="edge25" class="edge">
<title>g3&#45;&gt;g4</title>
<path fill="none" stroke="#999999" d="M1318.25,-277C1332.06,-277 1345.88,-277 1359.69,-277"/>
<polygon fill="#999999" stroke="#999999" points="1359.83,-279.8 1367.83,-277 1359.83,-274.2 1359.83,-279.8"/>
</g>
<!-- g5 -->
<g id="node30" class="node">
<title>g5</title>
<path fill="#ffe3b0" stroke="#444444" d="M865.5,-193C865.5,-193 622.5,-193 622.5,-193 616.5,-193 610.5,-187 610.5,-181 610.5,-181 610.5,-157 610.5,-157 610.5,-151 616.5,-145 622.5,-145 622.5,-145 865.5,-145 865.5,-145 871.5,-145 877.5,-151 877.5,-157 877.5,-157 877.5,-181 877.5,-181 877.5,-187 871.5,-193 865.5,-193"/>
<text text-anchor="middle" x="744" y="-178.2" font-family="Helvetica,sans-Serif" font-size="11.00">vegetation</text>
<text text-anchor="middle" x="744" y="-166.2" font-family="Helvetica,sans-Serif" font-size="11.00">contract + checks done (placement zones, counts)</text>
<text text-anchor="middle" x="744" y="-154.2" font-family="Helvetica,sans-Serif" font-size="11.00">data run done, re&#45;scoring with fixed views</text>
</g>
<!-- g4&#45;&gt;g5 -->
<g id="edge26" class="edge">
<title>g4&#45;&gt;g5</title>
<path fill="none" stroke="#999999" d="M1367.98,-257.84C1233.86,-238.96 1024.5,-209.49 885.81,-189.96"/>
<polygon fill="#999999" stroke="#999999" points="885.92,-187.15 877.61,-188.81 885.14,-192.7 885.92,-187.15"/>
</g>
<!-- g6 -->
<g id="node31" class="node">
<title>g6</title>
<path fill="#e0e0e0" stroke="#444444" d="M1040.5,-187C1040.5,-187 939.5,-187 939.5,-187 933.5,-187 927.5,-181 927.5,-175 927.5,-175 927.5,-163 927.5,-163 927.5,-157 933.5,-151 939.5,-151 939.5,-151 1040.5,-151 1040.5,-151 1046.5,-151 1052.5,-157 1052.5,-163 1052.5,-163 1052.5,-175 1052.5,-175 1052.5,-181 1046.5,-187 1040.5,-187"/>
<text text-anchor="middle" x="990" y="-172.2" font-family="Helvetica,sans-Serif" font-size="11.00">architecture</text>
<text text-anchor="middle" x="990" y="-160.2" font-family="Helvetica,sans-Serif" font-size="11.00">lots, facades, skyline</text>
</g>
<!-- g5&#45;&gt;g6 -->
<g id="edge27" class="edge">
<title>g5&#45;&gt;g6</title>
<path fill="none" stroke="#999999" d="M877.57,-169C891.4,-169 905.23,-169 919.06,-169"/>
<polygon fill="#999999" stroke="#999999" points="919.2,-171.8 927.2,-169 919.2,-166.2 919.2,-171.8"/>
</g>
<!-- r1 -->
<g id="node35" class="node">
<title>r1</title>
<path fill="#e0e0e0" stroke="#444444" d="M891.5,-52C891.5,-52 596.5,-52 596.5,-52 590.5,-52 584.5,-46 584.5,-40 584.5,-40 584.5,-28 584.5,-28 584.5,-22 590.5,-16 596.5,-16 596.5,-16 891.5,-16 891.5,-16 897.5,-16 903.5,-22 903.5,-28 903.5,-28 903.5,-40 903.5,-40 903.5,-46 897.5,-52 891.5,-52"/>
<text text-anchor="middle" x="744" y="-37.2" font-family="Helvetica,sans-Serif" font-size="11.00">GRPO episodes</text>
<text text-anchor="middle" x="744" y="-25.2" font-family="Helvetica,sans-Serif" font-size="11.00">verifier as the environment, reward = checks + judge win rate</text>
</g>
<!-- g5&#45;&gt;r1 -->
<g id="edge39" class="edge">
<title>g5&#45;&gt;r1</title>
<path fill="none" stroke="#555555" stroke-dasharray="5,2" d="M744,-137C744,-128.85 744,-119.69 744,-110.29"/>
<polygon fill="#555555" stroke="#555555" points="746.8,-110 744,-102 741.2,-110 746.8,-110"/>
<text text-anchor="middle" x="845" y="-112.8" font-family="Helvetica,sans-Serif" font-size="9.00"> &#160;cheap, honest rewards first: sky, ground, camera</text>
</g>
<!-- g7 -->
<g id="node32" class="node">
<title>g7</title>
<path fill="#e0e0e0" stroke="#444444" d="M1222,-187C1222,-187 1114,-187 1114,-187 1108,-187 1102,-181 1102,-175 1102,-175 1102,-163 1102,-163 1102,-157 1108,-151 1114,-151 1114,-151 1222,-151 1222,-151 1228,-151 1234,-157 1234,-163 1234,-163 1234,-175 1234,-175 1234,-181 1228,-187 1222,-187"/>
<text text-anchor="middle" x="1168" y="-172.2" font-family="Helvetica,sans-Serif" font-size="11.00">crowd</text>
<text text-anchor="middle" x="1168" y="-160.2" font-family="Helvetica,sans-Serif" font-size="11.00">contact validator, gaits</text>
</g>
<!-- g6&#45;&gt;g7 -->
<g id="edge28" class="edge">
<title>g6&#45;&gt;g7</title>
<path fill="none" stroke="#999999" d="M1052.58,-169C1066.27,-169 1079.97,-169 1093.66,-169"/>
<polygon fill="#999999" stroke="#999999" points="1093.72,-171.8 1101.72,-169 1093.72,-166.2 1093.72,-171.8"/>
</g>
<!-- g8 -->
<g id="node33" class="node">
<title>g8</title>
<path fill="#e0e0e0" stroke="#444444" d="M1422.5,-187C1422.5,-187 1295.5,-187 1295.5,-187 1289.5,-187 1283.5,-181 1283.5,-175 1283.5,-175 1283.5,-163 1283.5,-163 1283.5,-157 1289.5,-151 1295.5,-151 1295.5,-151 1422.5,-151 1422.5,-151 1428.5,-151 1434.5,-157 1434.5,-163 1434.5,-163 1434.5,-175 1434.5,-175 1434.5,-181 1428.5,-187 1422.5,-187"/>
<text text-anchor="middle" x="1359" y="-172.2" font-family="Helvetica,sans-Serif" font-size="11.00">characters: body + motion</text>
<text text-anchor="middle" x="1359" y="-160.2" font-family="Helvetica,sans-Serif" font-size="11.00">SFT only, cached assets</text>
</g>
<!-- g7&#45;&gt;g8 -->
<g id="edge29" class="edge">
<title>g7&#45;&gt;g8</title>
<path fill="none" stroke="#999999" d="M1234.03,-169C1247.77,-169 1261.51,-169 1275.25,-169"/>
<polygon fill="#999999" stroke="#999999" points="1275.33,-171.8 1283.33,-169 1275.33,-166.2 1275.33,-171.8"/>
</g>
<!-- g9 -->
<g id="node34" class="node">
<title>g9</title>
<path fill="#e0e0e0" stroke="#444444" d="M1614,-187C1614,-187 1496,-187 1496,-187 1490,-187 1484,-181 1484,-175 1484,-175 1484,-163 1484,-163 1484,-157 1490,-151 1496,-151 1496,-151 1614,-151 1614,-151 1620,-151 1626,-157 1626,-163 1626,-163 1626,-175 1626,-175 1626,-181 1620,-187 1614,-187"/>
<text text-anchor="middle" x="1555" y="-172.2" font-family="Helvetica,sans-Serif" font-size="11.00">vehicles + player modes</text>
<text text-anchor="middle" x="1555" y="-160.2" font-family="Helvetica,sans-Serif" font-size="11.00">following, entry / exit</text>
</g>
<!-- g8&#45;&gt;g9 -->
<g id="edge30" class="edge">
<title>g8&#45;&gt;g9</title>
<path fill="none" stroke="#999999" d="M1434.8,-169C1448.4,-169 1462.01,-169 1475.62,-169"/>
<polygon fill="#999999" stroke="#999999" points="1475.63,-171.8 1483.63,-169 1475.63,-166.2 1475.63,-171.8"/>
</g>
<!-- h1 -->
<g id="node37" class="node">
<title>h1</title>
<path fill="#e0e0e0" stroke="#444444" d="M1471,-52C1471,-52 1247,-52 1247,-52 1241,-52 1235,-46 1235,-40 1235,-40 1235,-28 1235,-28 1235,-22 1241,-16 1247,-16 1247,-16 1471,-16 1471,-16 1477,-16 1483,-22 1483,-28 1483,-28 1483,-40 1483,-40 1483,-46 1477,-52 1471,-52"/>
<text text-anchor="middle" x="1359" y="-37.2" font-family="Helvetica,sans-Serif" font-size="11.00">Second world under the contract</text>
<text text-anchor="middle" x="1359" y="-25.2" font-family="Helvetica,sans-Serif" font-size="11.00">(a new biome proves the contract generalises)</text>
</g>
<!-- g8&#45;&gt;h1 -->
<g id="edge40" class="edge">
<title>g8&#45;&gt;h1</title>
<path fill="none" stroke="#555555" d="M1359,-137C1359,-128.78 1359,-119.54 1359,-110.06"/>
<polygon fill="#555555" stroke="#555555" points="1361.8,-110 1359,-102 1356.2,-110 1361.8,-110"/>
<text text-anchor="middle" x="1421" y="-112.8" font-family="Helvetica,sans-Serif" font-size="9.00"> &#160;all segments have specialists</text>
</g>
<!-- r2 -->
<g id="node36" class="node">
<title>r2</title>
<path fill="#e0e0e0" stroke="#444444" d="M1109,-52C1109,-52 965,-52 965,-52 959,-52 953,-46 953,-40 953,-40 953,-28 953,-28 953,-22 959,-16 965,-16 965,-16 1109,-16 1109,-16 1115,-16 1121,-22 1121,-28 1121,-28 1121,-40 1121,-40 1121,-46 1115,-52 1109,-52"/>
<text text-anchor="middle" x="1037" y="-37.2" font-family="Helvetica,sans-Serif" font-size="11.00">Anchor set + human review</text>
<text text-anchor="middle" x="1037" y="-25.2" font-family="Helvetica,sans-Serif" font-size="11.00">guard against reward hacking</text>
</g>
<!-- r1&#45;&gt;r2 -->
<g id="edge31" class="edge">
<title>r1&#45;&gt;r2</title>
<path fill="none" stroke="#555555" d="M903.66,-34C917.38,-34 931.09,-34 944.81,-34"/>
<polygon fill="#555555" stroke="#555555" points="944.88,-36.8 952.88,-34 944.88,-31.2 944.88,-36.8"/>
</g>
<!-- h2 -->
<g id="node38" class="node">
<title>h2</title>
<path fill="#e0e0e0" stroke="#444444" d="M1773,-52C1773,-52 1545,-52 1545,-52 1539,-52 1533,-46 1533,-40 1533,-40 1533,-28 1533,-28 1533,-22 1539,-16 1545,-16 1545,-16 1773,-16 1773,-16 1779,-16 1785,-22 1785,-28 1785,-28 1785,-40 1785,-40 1785,-46 1779,-52 1773,-52"/>
<text text-anchor="middle" x="1659" y="-37.2" font-family="Helvetica,sans-Serif" font-size="11.00">Director writes the world assembly</text>
<text text-anchor="middle" x="1659" y="-25.2" font-family="Helvetica,sans-Serif" font-size="11.00">context (terrain, constants) + layer order + brief</text>
</g>
<!-- h1&#45;&gt;h2 -->
<g id="edge32" class="edge">
<title>h1&#45;&gt;h2</title>
<path fill="none" stroke="#555555" d="M1483.22,-34C1496.99,-34 1510.77,-34 1524.55,-34"/>
<polygon fill="#555555" stroke="#555555" points="1524.66,-36.8 1532.66,-34 1524.66,-31.2 1524.66,-36.8"/>
</g>
<!-- h2&#45;&gt;h3 -->
<g id="edge33" class="edge">
<title>h2&#45;&gt;h3</title>
<path fill="none" stroke="#555555" d="M1785.1,-34C1798.85,-34 1812.6,-34 1826.36,-34"/>
<polygon fill="#555555" stroke="#555555" points="1826.45,-36.8 1834.45,-34 1826.45,-31.2 1826.45,-36.8"/>
</g>
</g>
</svg>
